<?xml version="1.0" encoding="UTF-8"?><svg id="Layer_1" xmlns="http://www.w3.org/2000/svg" viewBox="0 0 108 180"><defs><style>.cls-1{fill:#231f20;}</style></defs><path class="cls-1" d="m103.54,129.84l-2.18,25.74H4.46v-25.08c3.15-2.4,8.36-6.15,15.61-11.26,17.73-12.62,30.63-23.01,38.7-31.18,8.07-8.17,12.11-15.66,12.11-22.47,0-4.98-1.61-9.1-4.83-12.35-3.22-3.25-7.54-4.87-12.96-4.87-12.62,0-19.94,8.23-21.95,24.7l-26.69-5.96c5.99-28.45,22.62-42.68,49.87-42.68,15.27,0,26.98,4.01,35.16,12.02,8.17,8.01,12.25,17.57,12.25,28.67s-4.27,21.73-12.82,30.75c-8.55,9.02-24.27,20.35-47.17,33.97h61.79Z"/></svg>