<?xml version="1.0" encoding="UTF-8"?><svg id="Layer_1" xmlns="http://www.w3.org/2000/svg" viewBox="0 0 108 180"><defs><style>.cls-1{fill:#231f20;}</style></defs><path class="cls-1" d="m53.72,156.57c-15.84,0-28.15-6.28-36.95-18.83-8.8-12.55-13.2-28.42-13.2-47.6s4.29-34.62,12.87-47.46c8.58-12.84,21.07-19.26,37.47-19.26s28.77,6.42,37.47,19.26c8.71,12.84,13.06,28.53,13.06,47.08s-4.37,34.87-13.11,47.65c-8.74,12.78-21.28,19.16-37.62,19.16Zm.38-111.48c-7.13,0-12.1,3.3-14.9,9.89-2.81,6.59-4.21,18.15-4.21,34.68s1.47,28.23,4.4,34.73c2.93,6.5,7.81,9.75,14.62,9.75s11.64-3.18,14.67-9.56c3.03-6.37,4.54-17.6,4.54-33.69,0-17.66-1.48-29.71-4.45-36.15-2.97-6.43-7.85-9.65-14.67-9.65Z"/></svg>